<svg xmlns="http://www.w3.org/2000/svg" xmlns:xlink="http://www.w3.org/1999/xlink" xmlns:lucid="lucid" width="1360" height="1760"><g transform="translate(0 0)" lucid:page-tab-id=".Q4MUjXso07N"><path d="M0 0h1360v1760H0z" fill="#fff"/><path d="M402.78 183.16c0-2.76 2.24-5 5-5h543.54c2.76 0 5 2.24 5 5v926.4c0 2.78-2.24 5-5 5H407.78c-2.76 0-5-2.22-5-5z" stroke="#666" fill-opacity="0"/><use xlink:href="#a" transform="matrix(1,0,0,1,410.7771404371331,186.16127619768747) translate(215.2253086419753 17.777777777777775)"/><use xlink:href="#b" transform="matrix(1,0,0,1,410.7771404371331,186.16127619768747) translate(270.96604938271605 17.777777777777775)"/><path d="M306.22 489.75c0 10.9-8.84 19.75-19.75 19.75-10.9 0-19.75-8.84-19.75-19.75 0-10.9 8.84-19.75 19.75-19.75 10.9 0 19.75 8.84 19.75 19.75z" stroke="#666" fill="#fff"/><path d="M286.47 509.5v50.3c0 2.76 1.2 6.9 2.67 9.22L326.47 628m-40-63.2l-40 63.2m0-98.75h80" stroke="#666" fill="none"/><path d="M246.47 475c0-2.76 2.24-5 5-5h70c2.76 0 5 2.24 5 5v170c0 2.76-2.24 5-5 5h-70c-2.76 0-5-2.24-5-5z" fill="none"/><use xlink:href="#c" transform="matrix(1,0,0,1,166.46954966781595,627.9989633254834) translate(72.57716049382715 15.777777777777775)"/><use xlink:href="#d" transform="matrix(1,0,0,1,166.46954966781595,627.9989633254834) translate(123.43518518518519 15.777777777777775)"/><path d="M1198.93 479.75c0 10.9-8.85 19.75-19.75 19.75s-19.75-8.84-19.75-19.75c0-10.9 8.84-19.75 19.75-19.75 10.9 0 19.75 8.84 19.75 19.75z" stroke="#666" fill="#fff"/><path d="M1179.18 499.5v50.3c0 2.76 1.2 6.9 2.67 9.22l37.33 58.98m-40-63.2l-40 63.2m0-98.75h80" stroke="#666" fill="none"/><path d="M1139.18 465c0-2.76 2.24-5 5-5h70c2.76 0 5 2.24 5 5v170c0 2.76-2.24 5-5 5h-70c-2.76 0-5-2.24-5-5z" fill="none"/><use xlink:href="#e" transform="matrix(1,0,0,1,1059.1768028769875,617.9989633254834) translate(72.10185185185185 15.777777777777775)"/><use xlink:href="#d" transform="matrix(1,0,0,1,1059.1768028769875,617.9989633254834) translate(123.9104938271605 15.777777777777775)"/><path d="M662.66 514.65c0 33.14-35.82 60-80 60-44.2 0-80-26.86-80-60 0-33.13 35.8-60 80-60 44.18 0 80 26.87 80 60z" stroke="#fff" fill="#3278cc"/><use xlink:href="#f" transform="matrix(1,0,0,1,526.6556952024389,478.6528577839302) translate(11.58024691358024 39.111111111111114)"/><use xlink:href="#g" transform="matrix(1,0,0,1,526.6556952024389,478.6528577839302) translate(41.74074074074074 39.111111111111114)"/><path d="M662.66 696.9c0 33.13-35.82 60-80 60-44.2 0-80-26.87-80-60 0-33.14 35.8-60 80-60 44.18 0 80 26.86 80 60z" stroke="#fff" fill="#3278cc"/><use xlink:href="#h" transform="matrix(1,0,0,1,526.6556952024389,660.8928285948061) translate(12.141975308641975 29.777777777777775)"/><use xlink:href="#i" transform="matrix(1,0,0,1,526.6556952024389,660.8928285948061) translate(46.62345679012346 29.777777777777775)"/><use xlink:href="#j" transform="matrix(1,0,0,1,526.6556952024389,660.8928285948061) translate(39.191358024691354 48.44444444444444)"/><path d="M287.48 559.9l214.2-45.14M287.5 559.9l-3.45.72" stroke="#666" fill="none"/><path d="M502.16 514.65v.5l-.4.1-.2-.98.6-.13z" fill="#666"/><path d="M287.4 560.27l214.33 136.35M287.42 560.27l-2.96-1.88" stroke="#666" fill="none"/><path d="M502.17 696.3v1.18l-.72-.44.54-.84z" fill="#666"/><path d="M926.1 630c0 33.14-35.8 60-80 60-44.17 0-80-26.86-80-60s35.83-60 80-60c44.2 0 80 26.86 80 60z" stroke="#666" fill="#3278cc"/><use xlink:href="#k" transform="matrix(1,0,0,1,790.112576939023,594) translate(33.55 43.199999999999996)"/><use xlink:href="#l" transform="matrix(1,0,0,1,790.112576939023,594) translate(32.875 64.8)"/><path d="M939.5 487.92c0 33.14-35.8 60-80 60-44.18 0-80-26.86-80-60s35.82-60 80-60c44.2 0 80 26.86 80 60z" stroke="#666" fill="#3278cc"/><use xlink:href="#m" transform="matrix(1,0,0,1,803.5043681067182,451.9218488003177) translate(9.125 21.6)"/><use xlink:href="#n" transform="matrix(1,0,0,1,803.5043681067182,451.9218488003177) translate(72.97500000000001 21.6)"/><use xlink:href="#o" transform="matrix(1,0,0,1,803.5043681067182,451.9218488003177) translate(22.049999999999997 43.2)"/><use xlink:href="#p" transform="matrix(1,0,0,1,803.5043681067182,451.9218488003177) translate(36.075 64.80000000000001)"/><path d="M755.1 617.42l-.74.66-3.38-3.8.75-.67zm-6.75-7.6l-.75.65-6.76-7.6.75-.67zM738.2 598.4l-.74.66-6.76-7.6.75-.67zm-10.13-11.42l-.75.67-5.3-6h1.32zm-21.3-24h-1.34l-5.14-5.77.74-.65zm-9.1-10.24l-.76.66-6.75-7.6.75-.67zm-10.15-11.4l-.75.65-6.76-7.62.76-.66zm-10.14-11.43l-.75.68-6.76-7.6.75-.68zm-10.14-11.4l-.75.66-3.4-3.8.76-.67z"/><path d="M663.87 514.7l-.74.66.03-.7v-.4l-.02-.38zM764.54 628.8l-12.94-7.6 6.93-6.15z"/><path d="M765.6 630l-14.85-8.7 7.96-7.08zm-13.15-8.88l11 6.46-5.1-11.7z"/><use xlink:href="#q" transform="matrix(1,0,0,1,671.6495681694964,562.9930955586317) translate(0.005000000000002558 12.444444444444446)"/><path d="M679.6 510.62h3.25l-3.62.84-.22-.98.6-.13zm89.56-19.9l-6.6 1.5v-.27h-3.08v-.03l9.46-2.2zm9.47-2.2l-4.73 1.1-.23-.98 4.73-1.1zM679.68 515.6l-14.95-1.3 12.86-7.73z" fill="#666"/><path d="M680.32 516.16l-17.16-1.5 14.76-8.88zm-14-2.23l12.7 1.1-1.76-7.68zM779 487.92v.5l-.38.1-.23-.97.62-.14z" fill="#666"/><use xlink:href="#r" transform="matrix(1,0,0,1,679.598550173097,491.95401995879064) translate(0.005000000000002558 12.444444444444446)"/><path d="M668.05 694.3l-4.2 2.74-.55-.84 4.2-2.75zm12.62-8.25l-8.4 5.5-.56-.84 8.42-5.48zm12.62-8.23l-8.42 5.5-.55-.85 8.4-5.5zm4.2-2.75l-.55-.84 2.22-1.45H701zm33.64-21.97l-1.55 1h-1.83l2.82-1.83zm12.62-8.23l-8.42 5.5-.54-.85 8.4-5.5zm8.4-5.5l-4.2 2.75-.55-.84 4.22-2.74zM754.85 642.56l-5.07-7.76 14.48-3.92z" fill="#666"/><path d="M754.8 643.4l-5.82-8.9 16.63-4.5zm-4.23-8.3l4.32 6.62 8-9.95zM663.86 697.03l-.72.47.02-.6V696.3l.15-.1z" fill="#666"/><use xlink:href="#q" transform="matrix(1,0,0,1,671.6495681694964,654.1130809640697) translate(0.005000000000002558 12.444444444444446)"/><path d="M571.76 284.2c0 33.14-35.82 60-80 60s-80-26.86-80-60c0-33.13 35.82-60 80-60s80 26.87 80 60z" fill="#3278cc"/><path d="M570.53 294.63l-.2.93-.82 2.82-1 2.84-1.23 2.85-.24.47m-2.5 4.6l-.4.68-1.96 2.9-2.24 2.9-1.7 1.95m-3.66 3.8l-.06.05-3.2 2.86-3.58 2.8-1.3.9m-4.42 2.87l-2.58 1.55-4.73 2.44-2.02.88m-4.86 2l-3.7 1.37-5.77 1.7-.55.14m-5.13 1.18l-.4.1-6.34 1.05-3.67.37m-5.24.4l-4.36.16h-.9l-5.26-.16m-5.25-.4l-2.8-.26-6.37-1-1.23-.28m-5.13-1.16l-5.58-1.6-4.45-1.6m-4.87-2l-1.35-.6-4.77-2.4-3.2-1.88m-4.4-2.87l-.8-.55-3.63-2.8-3.26-2.85-.45-.45m-3.65-3.78l-1.4-1.56-2.27-2.9-2-2.9-.62-1.05m-2.52-4.6l-.05-.1-1.26-2.85-1.04-2.84-.84-2.83-.3-1.3m-.92-5.18l-.2-2-.12-2.87v-.38l.1-2.86.2-2.4m.92-5.17l.2-.92.83-2.83 1.02-2.83 1.23-2.86.23-.47m2.52-4.62l.4-.66 1.95-2.9 2.24-2.92 1.7-1.94m3.64-3.8l.07-.05 3.22-2.87 3.58-2.8 1.3-.9m4.42-2.88l2.58-1.54 4.73-2.44 2-.88m4.87-2l3.7-1.36 5.77-1.72.55-.13m5.13-1.18l.4-.1 6.34-1.06 3.65-.37m5.25-.4l4.36-.16h.9l5.26.17m5.24.4l2.82.26 6.36 1 1.23.28m5.13 1.16l5.58 1.6 4.44 1.6m4.87 2.02l1.34.58 4.77 2.4 3.2 1.9m4.4 2.86l.82.54 3.63 2.8 3.26 2.85.46.46m3.66 3.78l1.4 1.56 2.27 2.9 1.98 2.9.63 1.06m2.54 4.6l.05.1 1.25 2.85 1.04 2.85.83 2.83.3 1.3m.9 5.17l.22 2.02.1 2.85v.38l-.08 2.87-.22 2.38" stroke="#666" fill="none"/><use xlink:href="#s" transform="matrix(1,0,0,1,435.759576706394,248.2035681135019) translate(18.575000000000003 64.8)"/><use xlink:href="#t" transform="matrix(1,0,0,1,435.759576706394,248.2035681135019) translate(53.475 64.8)"/><path d="M766.1 284.2c0 33.14-35.8 60-80 60-44.17 0-80-26.86-80-60 0-33.13 35.83-60 80-60 44.2 0 80 26.87 80 60z" fill="#3278cc"/><path d="M764.9 294.63l-.22.93-.82 2.82-1 2.84-1.24 2.85-.23.47m-2.53 4.6l-.4.68-1.95 2.9-2.24 2.9-1.7 1.95m-3.65 3.8l-.06.05-3.22 2.86-3.58 2.8-1.3.9m-4.42 2.87l-2.58 1.55-4.73 2.44-2 .88m-4.87 2l-3.7 1.37-5.77 1.7-.55.14m-5.12 1.18l-.4.1-6.35 1.05-3.66.37m-5.25.4l-4.36.16h-.9l-5.25-.16m-5.24-.4l-2.8-.26-6.37-1-1.23-.28m-5.13-1.16l-5.58-1.6-4.45-1.6m-4.86-2l-1.36-.6-4.78-2.4-3.2-1.88m-4.4-2.87l-.8-.55-3.63-2.8-3.27-2.85-.45-.45m-3.65-3.78l-1.4-1.56-2.26-2.9-2-2.9-.64-1.05m-2.53-4.6l-.05-.1-1.25-2.85-1.05-2.84-.84-2.83-.3-1.3m-.9-5.18l-.2-2-.13-2.87v-.38l.1-2.86.23-2.4m.9-5.17l.2-.92.83-2.83 1.02-2.83 1.22-2.86.24-.47m2.52-4.62l.4-.66 1.95-2.9 2.25-2.92 1.7-1.94m3.65-3.8l.06-.05 3.2-2.87 3.6-2.8 1.3-.9m4.4-2.88l2.6-1.54 4.72-2.44 2-.88m4.87-2l3.7-1.36 5.78-1.72.54-.13m5.13-1.18l.4-.1 6.34-1.06 3.67-.37m5.25-.4l4.36-.16h.9l5.27.17m5.25.4l2.8.26 6.38 1 1.22.28m5.14 1.16l5.58 1.6 4.44 1.6m4.86 2.02l1.35.58 4.77 2.4 3.2 1.9m4.4 2.86l.8.54 3.63 2.8 3.26 2.85.46.46m3.65 3.78l1.4 1.56 2.27 2.9 2 2.9.62 1.06m2.54 4.6l.04.1 1.26 2.85 1.04 2.85.85 2.83.3 1.3m.9 5.17l.2 2.02.1 2.85v.38l-.08 2.87-.22 2.38" stroke="#666" fill="none"/><use xlink:href="#s" transform="matrix(1,0,0,1,630.112576939023,248.2035681135019) translate(16.650000000000006 64.8)"/><use xlink:href="#u" transform="matrix(1,0,0,1,630.112576939023,248.2035681135019) translate(51.550000000000004 64.8)"/><path d="M939.5 290.16c0 33.13-35.8 60-80 60-44.18 0-80-26.87-80-60 0-33.14 35.82-60 80-60 44.2 0 80 26.86 80 60z" fill="#3278cc"/><path d="M938.28 300.6l-.2.9-.82 2.84-1.02 2.83-1.23 2.85-.22.47m-2.52 4.6l-.4.67-1.95 2.9-2.23 2.9-1.7 1.95m-3.65 3.8l-.06.05-3.22 2.86-3.58 2.8-1.3.9m-4.4 2.88l-2.6 1.55-4.73 2.44-2 .88m-4.86 2l-3.7 1.36-5.78 1.72-.55.13m-5.13 1.17l-.4.1-6.34 1.05-3.67.37m-5.24.38l-4.35.17h-.9l-5.26-.16m-5.24-.4l-2.8-.27-6.38-1-1.23-.28m-5.14-1.15l-5.58-1.6-4.44-1.6m-4.86-2.02l-1.35-.58-4.78-2.4-3.2-1.9m-4.4-2.86l-.8-.54-3.63-2.8-3.26-2.85-.46-.45m-3.66-3.78l-1.38-1.56-2.28-2.9-2-2.9-.63-1.06m-2.53-4.6l-.05-.1-1.25-2.85-1.05-2.84-.84-2.82-.3-1.3m-.9-5.17l-.2-2-.12-2.86v-.38l.1-2.87.22-2.4m.9-5.17l.2-.93.83-2.83 1.02-2.83 1.22-2.85.23-.48m2.52-4.6l.4-.68 1.95-2.9 2.24-2.9 1.7-1.95m3.65-3.8l.05-.06 3.22-2.86 3.58-2.8 1.3-.9m4.4-2.87l2.6-1.54 4.73-2.44 2-.9m4.86-2l3.7-1.35 5.78-1.72.54-.13m5.13-1.18l.4-.1 6.33-1.05 3.67-.38m5.25-.4l4.35-.16h.9l5.26.16m5.25.4l2.82.26 6.37 1 1.2.28m5.15 1.15l5.58 1.63 4.44 1.58m4.86 2.03l1.35.58 4.78 2.43 3.2 1.87m4.4 2.87l.8.54 3.63 2.8 3.25 2.86.46.45m3.67 3.8l1.38 1.55 2.28 2.9 2 2.9.63 1.06m2.53 4.62l.04.1 1.25 2.84 1.03 2.84.85 2.83.3 1.3m.9 5.18l.2 2.02.12 2.85v.4l-.1 2.85-.2 2.4" stroke="#666" fill="none"/><use xlink:href="#s" transform="matrix(1,0,0,1,803.5043681067182,254.1554752991069) translate(0.45000000000000284 64.8)"/><use xlink:href="#v" transform="matrix(1,0,0,1,803.5043681067182,254.1554752991069) translate(35.35 64.8)"/><path d="M582.66 437.77v-26.34c0-6.63-5.38-12-12-12h-66.9c-6.63 0-12-5.37-12-12V345.2" stroke="#666" fill="none"/><path d="M582.66 452.53l-4.64-14.26h9.27z" stroke="#666" fill="#666"/><path d="M491.75 344.7h.5v.52h-1v-.53z" fill="#666"/><path d="M686.1 345.2v53.48c0 6.63-5.36 12-12 12h-90.94" stroke="#666" fill="none"/><path d="M686.1 344.7h.5v.52h-1v-.53z" fill="#666"/><path d="M583.17 410.68h-.5M859.5 351.16v42.52c0 6.62-5.37 12-12 12H686.6" stroke="#666" fill="none"/><path d="M859.5 350.66h.5v.5h-1v-.52z" fill="#666"/><path d="M686.63 405.68h-.52M927.1 629.85l251.1-79.7" stroke="#666" fill="none"/><path d="M927.25 630.32l-.65.2v-1.04l.35-.1z" fill="#666"/><path d="M1178.2 550.15l3.35-1.06" stroke="#666" fill="none"/><path d="M1198.93 709.75c0 10.9-8.85 19.75-19.75 19.75s-19.75-8.84-19.75-19.75c0-10.9 8.84-19.75 19.75-19.75 10.9 0 19.75 8.84 19.75 19.75z" stroke="#666" fill="#fff"/><path d="M1179.18 729.5v50.3c0 2.76 1.2 6.9 2.67 9.22l37.33 58.98m-40-63.2l-40 63.2m0-98.75h80" stroke="#666" fill="none"/><path d="M1139.18 695c0-2.76 2.24-5 5-5h70c2.76 0 5 2.24 5 5v170c0 2.76-2.24 5-5 5h-70c-2.76 0-5-2.24-5-5z" fill="none"/><use xlink:href="#w" transform="matrix(1,0,0,1,1059.1768028769875,848) translate(99.28086419753086 15.777777777777775)"/><path d="M1178.26 779.74L927.04 630.26M1178.25 779.74l3.02 1.8" stroke="#666" fill="none"/><path d="M927.3 629.83l-.5.86-.2-.13V629.4z" fill="#666"/><path d="M751.93 829.4c0 33.15-35.8 60-80 60-44.18 0-80-26.85-80-60 0-33.13 35.82-60 80-60 44.2 0 80 26.87 80 60z" fill="#3278cc"/><path d="M750.7 839.84l-.2.92-.8 2.83-1.03 2.83-1.23 2.85-.23.46m-2.5 4.62l-.4.67-1.96 2.9-2.24 2.9-1.7 1.94m-3.65 3.8l-.06.06-3.23 2.86-3.58 2.8-1.32.9m-4.4 2.86l-2.6 1.55-4.72 2.45-2 .88m-4.86 2l-3.7 1.36-5.78 1.72-.54.12m-5.13 1.2l-.4.08-6.34 1.05-3.66.38m-5.25.38l-4.36.18h-.9l-5.27-.16m-5.24-.4l-2.8-.26-6.38-1-1.23-.27m-5.13-1.15l-5.6-1.6-4.43-1.6m-4.86-2l-1.34-.6-4.78-2.4-3.2-1.9m-4.4-2.86l-.8-.55-3.63-2.8-3.26-2.84-.47-.45m-3.66-3.78l-1.38-1.56-2.3-2.9-2-2.9-.62-1.05m-2.53-4.6l-.05-.1-1.25-2.85-1.05-2.84-.84-2.82-.3-1.3m-.9-5.18l-.2-2-.12-2.87v-.4l.08-2.85.23-2.4m.9-5.17l.2-.92.83-2.83 1.02-2.84 1.22-2.86.24-.46m2.52-4.62l.4-.67 1.95-2.9 2.24-2.9 1.7-1.96m3.65-3.8l.06-.05 3.22-2.87 3.58-2.8 1.3-.9m4.4-2.87l2.6-1.55 4.73-2.43 2-.88m4.87-2.02l3.7-1.36 5.78-1.72.54-.12m5.12-1.2l.4-.08 6.34-1.05 3.67-.38m5.25-.4l4.35-.16h.9l5.26.17m5.24.4l2.8.27 6.38 1 1.22.27m5.14 1.17l5.58 1.6 4.44 1.6m4.86 2l1.35.6 4.8 2.4 3.18 1.88m4.4 2.87l.8.54 3.64 2.8 3.26 2.85.46.46m3.66 3.8l1.38 1.54 2.28 2.9 2 2.9.62 1.06m2.54 4.6l.05.1 1.25 2.85 1.04 2.85.85 2.83.3 1.3m.9 5.18l.22 2 .1 2.87v.38l-.08 2.87-.22 2.4" stroke="#666" fill="none"/><use xlink:href="#x" transform="matrix(1,0,0,1,615.9343029867799,793.4087889222068) translate(26.025 43.199999999999996)"/><use xlink:href="#y" transform="matrix(1,0,0,1,615.9343029867799,793.4087889222068) translate(22.049999999999997 64.8)"/><path d="M751.93 983.55c0 33.14-35.8 60-80 60-44.18 0-80-26.86-80-60 0-33.13 35.82-60 80-60 44.2 0 80 26.87 80 60z" fill="#3278cc"/><path d="M750.7 993.98l-.2.93-.8 2.83-1.03 2.84-1.23 2.85-.23.46m-2.5 4.62l-.4.67-1.96 2.9-2.24 2.9-1.7 1.95m-3.65 3.8l-.06.05-3.23 2.86-3.58 2.8-1.32.9m-4.4 2.87l-2.6 1.55-4.72 2.44-2 .87m-4.86 2l-3.7 1.37-5.78 1.72-.54.13m-5.13 1.17l-.4.1-6.34 1.04-3.66.4m-5.25.38l-4.36.17h-.9l-5.27-.16m-5.24-.4l-2.8-.27-6.38-1-1.23-.28m-5.13-1.16l-5.6-1.62-4.43-1.6m-4.86-2l-1.34-.58-4.78-2.42-3.2-1.87m-4.4-2.86l-.8-.54-3.63-2.8-3.26-2.85-.47-.45m-3.66-3.78l-1.38-1.56-2.3-2.9-2-2.9-.62-1.06m-2.53-4.6l-.05-.1-1.25-2.85-1.05-2.84-.84-2.82-.3-1.3m-.9-5.18l-.2-2-.12-2.87v-.38l.08-2.86.23-2.4m.9-5.18l.2-.92.83-2.83 1.02-2.84 1.22-2.85.24-.46m2.52-4.62l.4-.66 1.95-2.9 2.24-2.9 1.7-1.95m3.65-3.8l.06-.06 3.22-2.86 3.58-2.8 1.3-.9m4.4-2.88l2.6-1.54 4.73-2.45 2-.87m4.87-2l3.7-1.36 5.78-1.72.54-.13m5.12-1.18l.4-.1 6.34-1.05 3.67-.38m5.25-.4l4.35-.16h.9l5.26.16m5.24.4l2.8.26 6.38 1 1.22.27m5.14 1.16l5.58 1.62 4.44 1.6m4.86 2l1.35.6 4.8 2.4 3.18 1.88m4.4 2.87l.8.54 3.64 2.8 3.26 2.85.46.46m3.66 3.8l1.38 1.55 2.28 2.9 2 2.9.62 1.06m2.54 4.62l.05.1 1.25 2.84 1.04 2.84.85 2.83.3 1.3m.9 5.17l.22 2 .1 2.87v.38l-.08 2.86-.22 2.4" stroke="#666" fill="none"/><use xlink:href="#z" transform="matrix(1,0,0,1,615.9343029867799,947.5526624241259) translate(33.55 43.199999999999996)"/><use xlink:href="#A" transform="matrix(1,0,0,1,615.9343029867799,947.5526624241259) translate(26.025 64.8)"/><path d="M607.16 969.2l-3.55 3.38-.68-.72 3.55-3.4zM617.8 959l-7.1 6.78-.7-.72 7.1-6.8zm10.62-10.18l-7.1 6.78-.68-.72 7.08-6.78zm10.62-10.18l-7.08 6.8-.7-.74 7.1-6.78zm10.63-10.17l-7.08 6.77-.7-.72 7.08-6.8zm10.63-10.2l-7.08 6.8-.7-.73 7.1-6.78zm31.9-30.52l-7.1 6.8-.7-.74 7.1-6.78zm10.62-10.18l-7.1 6.8-.68-.73 7.1-6.8zm10.63-10.17l-7.1 6.78-.68-.7 7.08-6.8zm10.63-10.18l-7.1 6.8-.68-.74 7.08-6.77zm10.62-10.17l-7.08 6.78-.7-.72 7.1-6.8zm10.63-10.18l-7.08 6.78-.7-.72 7.1-6.78zm7.1-6.78l-3.55 3.4-.7-.73 3.55-3.4z" fill="#666"/><path d="M752.43 829.02v.4l-.02.7-.68-.72.7-.67zM606.1 975.92l-13.5 6.5 7.1-13.2z" fill="#666"/><path d="M606.95 976.07l-15.52 7.48 8.16-15.17zm-13.18 5.24l11.5-5.54-5.45-5.7z" fill="#666"/><g><use xlink:href="#q" transform="matrix(1,0,0,1,629.1997350855454,897.1473923398329) translate(0.005000000000002558 12.444444444444446)"/></g><path d="M287.36 560.33l303.7 268.75M287.37 560.34l-2.63-2.33" stroke="#666" fill="none"/><path d="M591.45 828.76l-.02.64v.4l.02.3-.73-.66.66-.75zM1179.55 550.7L999.2 668.62l-1.86-1.76-1.88-.6-2.02.27-.8.42-1.44 1.5-.6 1.9.28 2 .65 1.28-238.4 155.9-.55-.82L990.24 673.3l-.33-.63-.32-2.4.74-2.33 1.7-1.8 1.12-.56 2.4-.34 2.33.74 1.44 1.38 179.7-117.5z" fill="#666"/><path d="M1182.48 548.78l-2.94 1.92-.55-.84 2.93-1.92zM753.14 829.55l-.72.47v-1.2l.17-.1z" fill="#666"/><path d="M752.9 983.34l425.34-203.12" stroke="#666" fill="none"/><path d="M753.1 983.78l-.68.34V983l.26-.12z" fill="#666"/><path d="M1178.23 780.22l3.17-1.5M591.14 983.15L287.28 560.4" stroke="#666" fill="none"/><path d="M591.43 983.55v.4l.03.5-.73-1.02.72-.52z" fill="#666"/><path d="M287.3 560.42l-2.06-2.86" stroke="#666" fill="none"/><defs><path fill="#666" d="M151-220L108 0H75l42-220H32l6-28h203l-5 28h-85" id="B"/><path fill="#666" d="M66-151c12-25 30-51 66-40l-6 26C45-176 58-65 38 0H6l36-190h30" id="C"/><path fill="#666" d="M165-48c-4 18 1 34 23 27l-3 20c-29 8-62 0-52-35h-2C116-14 99 4 63 4 30 4 8-16 8-49c0-68 71-67 138-67 10-26 0-56-31-54-26 1-42 9-47 31l-32-5c8-67 160-71 144 15-5 28-9 54-15 81zM42-50c3 52 80 24 89-6 7-12 7-24 11-38-47 1-103-4-100 44" id="D"/><path fill="#666" d="M133-28C103 26-5 8 13-77c13-62 24-115 90-117 29-1 46 15 56 35l19-102h32L160 0h-30zM45-64c-2 27 10 43 35 43 54-1 69-50 69-103 0-29-15-46-42-46-53-1-58 58-62 106" id="E"/><path fill="#666" d="M50-231l6-30h32l-6 30H50zM6 0l37-190h31L37 0H6" id="F"/><path fill="#666" d="M67-158c22-48 132-52 116 29L158 0h-32l25-140c3-38-53-32-70-12C52-117 51-52 38 0H6l36-190h30" id="G"/><path fill="#666" d="M103-194c29 0 47 14 56 36 2-11 5-23 8-32h30L160-5C157 61 82 97 21 62 9 55 4 45 1 30l28-7c7 42 83 31 92-3 4-16 9-38 13-55-13 20-29 36-62 36-40 0-60-25-60-64 0-71 23-131 91-131zm4 24c-53 0-58 54-61 104-2 27 10 44 36 44 49 0 65-50 67-102 1-29-15-46-42-46" id="H"/><g id="a"><use transform="matrix(0.04320987654320988,0,0,0.04320987654320988,0,0)" xlink:href="#B"/><use transform="matrix(0.04320987654320988,0,0,0.04320987654320988,8.296296296296298,0)" xlink:href="#C"/><use transform="matrix(0.04320987654320988,0,0,0.04320987654320988,13.438271604938272,0)" xlink:href="#D"/><use transform="matrix(0.04320987654320988,0,0,0.04320987654320988,22.080246913580247,0)" xlink:href="#E"/><use transform="matrix(0.04320987654320988,0,0,0.04320987654320988,30.72222222222222,0)" xlink:href="#F"/><use transform="matrix(0.04320987654320988,0,0,0.04320987654320988,34.135802469135804,0)" xlink:href="#G"/><use transform="matrix(0.04320987654320988,0,0,0.04320987654320988,42.77777777777778,0)" xlink:href="#H"/></g><path fill="#666" d="M194-120c59 52 2 134-86 124-53-6-90-18-98-63l31-7c8 30 29 43 70 43 46 0 84-17 71-62-32-43-135-20-137-98-3-89 178-90 191-16l-30 9c-8-48-127-53-127 5 0 53 81 35 115 65" id="I"/><path fill="#666" d="M198-190L69 30C53 58 25 83-20 72c4-11-1-27 19-22 33-1 43-29 59-52L20-190h32L79-34l84-156h35" id="J"/><path fill="#666" d="M55-144c13 50 104 24 104 88C159 21 15 23 1-39l26-10c6 40 102 42 102-4-13-50-104-23-104-87 0-71 143-71 148-8l-29 4c-5-35-85-37-89 0" id="K"/><path fill="#666" d="M51-54c-9 22 5 41 31 30L79-1C43 14 10-4 19-52l22-115H19l5-23h22l19-43h21l-9 43h35l-4 23H73" id="L"/><path fill="#666" d="M111-194c62-3 86 47 72 106H45c-7 38 6 69 45 68 27-1 43-14 53-32l24 11C152-15 129 4 87 4 38 3 12-23 12-71c0-70 32-119 99-123zm44 81c14-66-71-72-95-28-4 8-8 17-11 28h106" id="M"/><path fill="#666" d="M248-111c6-24 9-61-24-58-72 9-57 108-77 169h-31l26-142c3-37-50-30-64-10C52-115 50-51 37 0H6l36-190h30c-1 10-6 24-4 32 13-43 101-52 105 5 13-22 29-41 61-41 90 0 28 129 23 194h-31" id="N"/><g id="b"><use transform="matrix(0.04320987654320988,0,0,0.04320987654320988,0,0)" xlink:href="#I"/><use transform="matrix(0.04320987654320988,0,0,0.04320987654320988,10.370370370370372,0)" xlink:href="#J"/><use transform="matrix(0.04320987654320988,0,0,0.04320987654320988,18.148148148148152,0)" xlink:href="#K"/><use transform="matrix(0.04320987654320988,0,0,0.04320987654320988,25.925925925925927,0)" xlink:href="#L"/><use transform="matrix(0.04320987654320988,0,0,0.04320987654320988,30.24691358024692,0)" xlink:href="#M"/><use transform="matrix(0.04320987654320988,0,0,0.04320987654320988,38.88888888888889,0)" xlink:href="#N"/></g><path fill="#666" d="M6 0l50-261h32L37 0H6" id="O"/><g id="c"><use transform="matrix(0.04320987654320988,0,0,0.04320987654320988,0,0)" xlink:href="#I"/><use transform="matrix(0.04320987654320988,0,0,0.04320987654320988,10.370370370370372,0)" xlink:href="#M"/><use transform="matrix(0.04320987654320988,0,0,0.04320987654320988,19.01234567901235,0)" xlink:href="#O"/><use transform="matrix(0.04320987654320988,0,0,0.04320987654320988,22.425925925925934,0)" xlink:href="#O"/><use transform="matrix(0.04320987654320988,0,0,0.04320987654320988,25.839506172839513,0)" xlink:href="#F"/><use transform="matrix(0.04320987654320988,0,0,0.04320987654320988,29.253086419753096,0)" xlink:href="#G"/><use transform="matrix(0.04320987654320988,0,0,0.04320987654320988,37.89506172839507,0)" xlink:href="#H"/></g><path fill="#666" d="M238-179c0 84-86 86-175 82L45 0H11l48-248c82 0 179-12 179 69zm-34 1c0-53-64-42-116-43l-19 98c63 0 135 9 135-55" id="P"/><g id="d"><use transform="matrix(0.04320987654320988,0,0,0.04320987654320988,0,0)" xlink:href="#P"/><use transform="matrix(0.04320987654320988,0,0,0.04320987654320988,10.370370370370372,0)" xlink:href="#O"/><use transform="matrix(0.04320987654320988,0,0,0.04320987654320988,13.783950617283953,0)" xlink:href="#D"/><use transform="matrix(0.04320987654320988,0,0,0.04320987654320988,22.425925925925934,0)" xlink:href="#J"/><use transform="matrix(0.04320987654320988,0,0,0.04320987654320988,30.203703703703713,0)" xlink:href="#M"/><use transform="matrix(0.04320987654320988,0,0,0.04320987654320988,38.845679012345684,0)" xlink:href="#C"/></g><path fill="#666" d="M219-77C219 17 104-2 11 0l48-248c73 2 169-15 169 57 0 38-24 54-60 60 29 5 51 21 51 54zm-26-111c0-44-62-31-105-33l-16 79c55 0 121 9 121-46zm-7 110c-1-49-69-36-119-38L50-27c61-1 137 12 136-51" id="Q"/><path fill="#666" d="M67 3c-93-2-31-127-26-193h32L48-50c-3 39 53 32 70 12 30-34 30-101 43-152h32L157 0h-30c1-10 6-24 4-33-14 20-29 37-64 36" id="R"/><g id="e"><use transform="matrix(0.04320987654320988,0,0,0.04320987654320988,0,0)" xlink:href="#Q"/><use transform="matrix(0.04320987654320988,0,0,0.04320987654320988,10.370370370370372,0)" xlink:href="#R"/><use transform="matrix(0.04320987654320988,0,0,0.04320987654320988,19.01234567901235,0)" xlink:href="#J"/><use transform="matrix(0.04320987654320988,0,0,0.04320987654320988,26.790123456790127,0)" xlink:href="#F"/><use transform="matrix(0.04320987654320988,0,0,0.04320987654320988,30.203703703703713,0)" xlink:href="#G"/><use transform="matrix(0.04320987654320988,0,0,0.04320987654320988,38.845679012345684,0)" xlink:href="#H"/></g><path fill="#fff" d="M194-120c59 52 2 134-86 124-53-6-90-18-98-63l31-7c8 30 29 43 70 43 46 0 84-17 71-62-32-43-135-20-137-98-3-89 178-90 191-16l-30 9c-8-48-127-53-127 5 0 53 81 35 115 65" id="S"/><path fill="#fff" d="M111-194c62-3 86 47 72 106H45c-7 38 6 69 45 68 27-1 43-14 53-32l24 11C152-15 129 4 87 4 38 3 12-23 12-71c0-70 32-119 99-123zm44 81c14-66-71-72-95-28-4 8-8 17-11 28h106" id="T"/><path fill="#fff" d="M6 0l50-261h32L37 0H6" id="U"/><g id="f"><use transform="matrix(0.04320987654320988,0,0,0.04320987654320988,0,0)" xlink:href="#S"/><use transform="matrix(0.04320987654320988,0,0,0.04320987654320988,10.370370370370372,0)" xlink:href="#T"/><use transform="matrix(0.04320987654320988,0,0,0.04320987654320988,19.01234567901235,0)" xlink:href="#U"/><use transform="matrix(0.04320987654320988,0,0,0.04320987654320988,22.425925925925934,0)" xlink:href="#U"/></g><path fill="#fff" d="M238-179c0 84-86 86-175 82L45 0H11l48-248c82 0 179-12 179 69zm-34 1c0-53-64-42-116-43l-19 98c63 0 135 9 135-55" id="V"/><path fill="#fff" d="M66-151c12-25 30-51 66-40l-6 26C45-176 58-65 38 0H6l36-190h30" id="W"/><path fill="#fff" d="M30-147c31-64 166-65 159 27C183-49 158 1 86 4 9 8 1-88 30-147zM88-20c53 0 68-48 68-100 0-31-11-51-44-50-52 1-68 46-68 97 0 32 13 53 44 53" id="X"/><path fill="#fff" d="M67-162c32-53 139-36 121 50C175-51 163 2 97 4 68 4 52-11 42-31 38 6 28 39 22 75H-9l50-265h29c-1 10 0 20-3 28zm89 36c0-26-10-43-35-43-54 0-67 50-69 103-1 29 14 45 42 46 53 0 62-58 62-106" id="Y"/><path fill="#fff" d="M51-54c-9 22 5 41 31 30L79-1C43 14 10-4 19-52l22-115H19l5-23h22l19-43h21l-9 43h35l-4 23H73" id="Z"/><path fill="#fff" d="M198-190L69 30C53 58 25 83-20 72c4-11-1-27 19-22 33-1 43-29 59-52L20-190h32L79-34l84-156h35" id="aa"/><g id="g"><use transform="matrix(0.04320987654320988,0,0,0.04320987654320988,0,0)" xlink:href="#V"/><use transform="matrix(0.04320987654320988,0,0,0.04320987654320988,10.370370370370372,0)" xlink:href="#W"/><use transform="matrix(0.04320987654320988,0,0,0.04320987654320988,15.512345679012347,0)" xlink:href="#X"/><use transform="matrix(0.04320987654320988,0,0,0.04320987654320988,24.154320987654323,0)" xlink:href="#Y"/><use transform="matrix(0.04320987654320988,0,0,0.04320987654320988,32.7962962962963,0)" xlink:href="#T"/><use transform="matrix(0.04320987654320988,0,0,0.04320987654320988,41.43827160493827,0)" xlink:href="#W"/><use transform="matrix(0.04320987654320988,0,0,0.04320987654320988,46.58024691358024,0)" xlink:href="#Z"/><use transform="matrix(0.04320987654320988,0,0,0.04320987654320988,50.90123456790123,0)" xlink:href="#aa"/></g><g id="h"><use transform="matrix(0.04320987654320988,0,0,0.04320987654320988,0,0)" xlink:href="#S"/><use transform="matrix(0.04320987654320988,0,0,0.04320987654320988,10.370370370370372,0)" xlink:href="#T"/><use transform="matrix(0.04320987654320988,0,0,0.04320987654320988,19.01234567901235,0)" xlink:href="#U"/><use transform="matrix(0.04320987654320988,0,0,0.04320987654320988,22.425925925925934,0)" xlink:href="#U"/></g><path fill="#fff" d="M52-101C46-14 166-7 216-51l9-45h-74l6-28h105l-18 87C217-12 181 4 130 4 60 4 18-31 18-101c0-106 78-167 188-146 30 6 48 27 59 54l-34 9c-10-26-31-41-67-40-75 1-107 50-112 123" id="ab"/><path fill="#fff" d="M20-101c0-91 52-143 145-150 126-9 127 168 53 223-23 17-55 32-93 32C57 4 20-33 20-101zm216-33c5-57-18-91-73-90-77 1-110 51-110 125 0 49 23 75 73 75 72-1 104-45 110-110" id="ac"/><path fill="#fff" d="M29-66c0 49 71 55 82 11 13-52 22-111 33-165H93l5-28h85L149-74C151 11 7 37-1-60" id="ad"/><path fill="#fff" d="M87-220l-18 92h140l-5 28H64L45 0H11l48-248h178l-5 28H87" id="ae"/><g id="i"><use transform="matrix(0.04320987654320988,0,0,0.04320987654320988,0,0)" xlink:href="#ab"/><use transform="matrix(0.04320987654320988,0,0,0.04320987654320988,12.098765432098766,0)" xlink:href="#ac"/><use transform="matrix(0.04320987654320988,0,0,0.04320987654320988,24.19753086419753,0)" xlink:href="#ac"/><use transform="matrix(0.04320987654320988,0,0,0.04320987654320988,36.2962962962963,0)" xlink:href="#ad"/><use transform="matrix(0.04320987654320988,0,0,0.04320987654320988,44.074074074074076,0)" xlink:href="#ae"/></g><path fill="#fff" d="M125-24c46 0 70-25 89-51l25 16C214-24 183 4 123 4 8 4-5-146 60-208c32-50 158-61 191-5 5 7 9 14 11 22l-32 10c-9-28-33-43-69-43-74 0-108 51-108 125 0 46 24 75 72 75" id="af"/><path fill="#fff" d="M165-48c-4 18 1 34 23 27l-3 20c-29 8-62 0-52-35h-2C116-14 99 4 63 4 30 4 8-16 8-49c0-68 71-67 138-67 10-26 0-56-31-54-26 1-42 9-47 31l-32-5c8-67 160-71 144 15-5 28-9 54-15 81zM42-50c3 52 80 24 89-6 7-12 7-24 11-38-47 1-103-4-100 44" id="ag"/><path fill="#fff" d="M133-28C103 26-5 8 13-77c13-62 24-115 90-117 29-1 46 15 56 35l19-102h32L160 0h-30zM45-64c-2 27 10 43 35 43 54-1 69-50 69-103 0-29-15-46-42-46-53-1-58 58-62 106" id="ah"/><g id="j"><use transform="matrix(0.04320987654320988,0,0,0.04320987654320988,0,0)" xlink:href="#af"/><use transform="matrix(0.04320987654320988,0,0,0.04320987654320988,11.19135802469136,0)" xlink:href="#ag"/><use transform="matrix(0.04320987654320988,0,0,0.04320987654320988,19.833333333333336,0)" xlink:href="#W"/><use transform="matrix(0.04320987654320988,0,0,0.04320987654320988,24.97530864197531,0)" xlink:href="#ah"/></g><path d="M137 0h-34L2-248h35l83 218 83-218h36" id="ai"/><path d="M100-194c63 0 86 42 84 106H49c0 40 14 67 53 68 26 1 43-12 49-29l28 8c-11 28-37 45-77 45C44 4 14-33 15-96c1-61 26-98 85-98zm52 81c6-60-76-77-97-28-3 7-6 17-6 28h103" id="aj"/><path d="M114-163C36-179 61-72 57 0H25l-1-190h30c1 12-1 29 2 39 6-27 23-49 58-41v29" id="ak"/><path d="M24-231v-30h32v30H24zM24 0v-190h32V0H24" id="al"/><path d="M101-234c-31-9-42 10-38 44h38v23H63V0H32v-167H5v-23h27c-7-52 17-82 69-68v24" id="am"/><path d="M179-190L93 31C79 59 56 82 12 73V49c39 6 53-20 64-50L1-190h34L92-34l54-156h33" id="an"/><g id="k"><use transform="matrix(0.05,0,0,0.05,0,0)" xlink:href="#ai"/><use transform="matrix(0.05,0,0,0.05,11,0)" xlink:href="#aj"/><use transform="matrix(0.05,0,0,0.05,21,0)" xlink:href="#ak"/><use transform="matrix(0.05,0,0,0.05,26.950000000000003,0)" xlink:href="#al"/><use transform="matrix(0.05,0,0,0.05,30.899999999999995,0)" xlink:href="#am"/><use transform="matrix(0.05,0,0,0.05,35.9,0)" xlink:href="#an"/></g><path d="M127-220V0H93v-220H8v-28h204v28h-85" id="ao"/><path d="M141-36C126-15 110 5 73 4 37 3 15-17 15-53c-1-64 63-63 125-63 3-35-9-54-41-54-24 1-41 7-42 31l-33-3c5-37 33-52 76-52 45 0 72 20 72 64v82c-1 20 7 32 28 27v20c-31 9-61-2-59-35zM48-53c0 20 12 33 32 33 41-3 63-29 60-74-43 2-92-5-92 41" id="ap"/><path d="M85-194c31 0 48 13 60 33l-1-100h32l1 261h-30c-2-10 0-23-3-31C134-8 116 4 85 4 32 4 16-35 15-94c0-66 23-100 70-100zm9 24c-40 0-46 34-46 75 0 40 6 74 45 74 42 0 51-32 51-76 0-42-9-74-50-73" id="aq"/><g id="l"><use transform="matrix(0.05,0,0,0.05,0,0)" xlink:href="#ao"/><use transform="matrix(0.05,0,0,0.05,10.3,0)" xlink:href="#ak"/><use transform="matrix(0.05,0,0,0.05,16.25,0)" xlink:href="#ap"/><use transform="matrix(0.05,0,0,0.05,26.25,0)" xlink:href="#aq"/><use transform="matrix(0.05,0,0,0.05,36.25,0)" xlink:href="#aj"/></g><path d="M30-248c118-7 216 8 213 122C240-48 200 0 122 0H30v-248zM63-27c89 8 146-16 146-99s-60-101-146-95v194" id="ar"/><path d="M135-143c-3-34-86-38-87 0 15 53 115 12 119 90S17 21 10-45l28-5c4 36 97 45 98 0-10-56-113-15-118-90-4-57 82-63 122-42 12 7 21 19 24 35" id="as"/><path d="M115-194c55 1 70 41 70 98S169 2 115 4C84 4 66-9 55-30l1 105H24l-1-265h31l2 30c10-21 28-34 59-34zm-8 174c40 0 45-34 45-75s-6-73-45-74c-42 0-51 32-51 76 0 43 10 73 51 73" id="at"/><path d="M24 0v-261h32V0H24" id="au"/><g id="m"><use transform="matrix(0.05,0,0,0.05,0,0)" xlink:href="#ar"/><use transform="matrix(0.05,0,0,0.05,12.950000000000001,0)" xlink:href="#al"/><use transform="matrix(0.05,0,0,0.05,16.900000000000002,0)" xlink:href="#as"/><use transform="matrix(0.05,0,0,0.05,25.900000000000002,0)" xlink:href="#at"/><use transform="matrix(0.05,0,0,0.05,35.900000000000006,0)" xlink:href="#au"/><use transform="matrix(0.05,0,0,0.05,39.85000000000001,0)" xlink:href="#ap"/><use transform="matrix(0.05,0,0,0.05,49.85000000000001,0)" xlink:href="#an"/></g><path d="M185-189c-5-48-123-54-124 2 14 75 158 14 163 119 3 78-121 87-175 55-17-10-28-26-33-46l33-7c5 56 141 63 141-1 0-78-155-14-162-118-5-82 145-84 179-34 5 7 8 16 11 25" id="av"/><g id="n"><use transform="matrix(0.05,0,0,0.05,0,0)" xlink:href="#av"/><use transform="matrix(0.05,0,0,0.05,12,0)" xlink:href="#aj"/><use transform="matrix(0.05,0,0,0.05,22,0)" xlink:href="#au"/><use transform="matrix(0.05,0,0,0.05,25.950000000000003,0)" xlink:href="#au"/></g><path d="M30-248c87 1 191-15 191 75 0 78-77 80-158 76V0H30v-248zm33 125c57 0 124 11 124-50 0-59-68-47-124-48v98" id="aw"/><path d="M100-194c62-1 85 37 85 99 1 63-27 99-86 99S16-35 15-95c0-66 28-99 85-99zM99-20c44 1 53-31 53-75 0-43-8-75-51-75s-53 32-53 75 10 74 51 75" id="ax"/><path d="M59-47c-2 24 18 29 38 22v24C64 9 27 4 27-40v-127H5v-23h24l9-43h21v43h35v23H59v120" id="ay"/><g id="o"><use transform="matrix(0.05,0,0,0.05,0,0)" xlink:href="#aw"/><use transform="matrix(0.05,0,0,0.05,12,0)" xlink:href="#ak"/><use transform="matrix(0.05,0,0,0.05,17.95,0)" xlink:href="#ax"/><use transform="matrix(0.05,0,0,0.05,27.950000000000003,0)" xlink:href="#at"/><use transform="matrix(0.05,0,0,0.05,37.95,0)" xlink:href="#aj"/><use transform="matrix(0.05,0,0,0.05,47.95,0)" xlink:href="#ak"/><use transform="matrix(0.05,0,0,0.05,53.900000000000006,0)" xlink:href="#ay"/><use transform="matrix(0.05,0,0,0.05,58.900000000000006,0)" xlink:href="#an"/></g><path d="M30 0v-248h187v28H63v79h144v27H63v87h162V0H30" id="az"/><g id="p"><use transform="matrix(0.05,0,0,0.05,0,0)" xlink:href="#az"/><use transform="matrix(0.05,0,0,0.05,12,0)" xlink:href="#ak"/><use transform="matrix(0.05,0,0,0.05,17.95,0)" xlink:href="#ak"/><use transform="matrix(0.05,0,0,0.05,23.9,0)" xlink:href="#ax"/><use transform="matrix(0.05,0,0,0.05,33.9,0)" xlink:href="#ak"/></g><path d="M18-100v-36l175-74v27L42-118l151 64v27" id="aA"/><path d="M117-194c89-4 53 116 60 194h-32v-121c0-31-8-49-39-48C34-167 62-67 57 0H25l-1-190h30c1 10-1 24 2 32 11-22 29-35 61-36" id="aB"/><path d="M96-169c-40 0-48 33-48 73s9 75 48 75c24 0 41-14 43-38l32 2c-6 37-31 61-74 61-59 0-76-41-82-99-10-93 101-131 147-64 4 7 5 14 7 22l-32 3c-4-21-16-35-41-35" id="aC"/><path d="M84 4C-5 8 30-112 23-190h32v120c0 31 7 50 39 49 72-2 45-101 50-169h31l1 190h-30c-1-10 1-25-2-33-11 22-28 36-60 37" id="aD"/><path d="M18-27v-27l151-64-151-65v-27l175 74v36" id="aE"/><g id="q"><use transform="matrix(0.04320987654320988,0,0,0.04320987654320988,0,0)" xlink:href="#aA"/><use transform="matrix(0.04320987654320988,0,0,0.04320987654320988,9.074074074074074,0)" xlink:href="#aA"/><use transform="matrix(0.04320987654320988,0,0,0.04320987654320988,18.14814814814815,0)" xlink:href="#al"/><use transform="matrix(0.04320987654320988,0,0,0.04320987654320988,21.561728395061728,0)" xlink:href="#aB"/><use transform="matrix(0.04320987654320988,0,0,0.04320987654320988,30.203703703703702,0)" xlink:href="#aC"/><use transform="matrix(0.04320987654320988,0,0,0.04320987654320988,37.98148148148148,0)" xlink:href="#au"/><use transform="matrix(0.04320987654320988,0,0,0.04320987654320988,41.39506172839506,0)" xlink:href="#aD"/><use transform="matrix(0.04320987654320988,0,0,0.04320987654320988,50.037037037037045,0)" xlink:href="#aq"/><use transform="matrix(0.04320987654320988,0,0,0.04320987654320988,58.679012345679006,0)" xlink:href="#aj"/><use transform="matrix(0.04320987654320988,0,0,0.04320987654320988,67.32098765432099,0)" xlink:href="#aE"/><use transform="matrix(0.04320987654320988,0,0,0.04320987654320988,76.39506172839506,0)" xlink:href="#aE"/></g><path d="M141 0L90-78 38 0H4l68-98-65-92h35l48 74 47-74h35l-64 92 68 98h-35" id="aF"/><g id="r"><use transform="matrix(0.04320987654320988,0,0,0.04320987654320988,0,0)" xlink:href="#aA"/><use transform="matrix(0.04320987654320988,0,0,0.04320987654320988,9.074074074074074,0)" xlink:href="#aA"/><use transform="matrix(0.04320987654320988,0,0,0.04320987654320988,18.14814814814815,0)" xlink:href="#aj"/><use transform="matrix(0.04320987654320988,0,0,0.04320987654320988,26.790123456790127,0)" xlink:href="#aF"/><use transform="matrix(0.04320987654320988,0,0,0.04320987654320988,34.567901234567906,0)" xlink:href="#ay"/><use transform="matrix(0.04320987654320988,0,0,0.04320987654320988,38.88888888888889,0)" xlink:href="#aj"/><use transform="matrix(0.04320987654320988,0,0,0.04320987654320988,47.53086419753087,0)" xlink:href="#aB"/><use transform="matrix(0.04320987654320988,0,0,0.04320987654320988,56.17283950617284,0)" xlink:href="#aq"/><use transform="matrix(0.04320987654320988,0,0,0.04320987654320988,64.81481481481482,0)" xlink:href="#aE"/><use transform="matrix(0.04320987654320988,0,0,0.04320987654320988,73.8888888888889,0)" xlink:href="#aE"/></g><g id="s"><use transform="matrix(0.05,0,0,0.05,0,0)" xlink:href="#av"/><use transform="matrix(0.05,0,0,0.05,12,0)" xlink:href="#aj"/><use transform="matrix(0.05,0,0,0.05,22,0)" xlink:href="#au"/><use transform="matrix(0.05,0,0,0.05,25.950000000000003,0)" xlink:href="#au"/></g><g id="t"><use transform="matrix(0.05,0,0,0.05,0,0)" xlink:href="#av"/><use transform="matrix(0.05,0,0,0.05,12,0)" xlink:href="#al"/><use transform="matrix(0.05,0,0,0.05,15.949999999999998,0)" xlink:href="#ay"/><use transform="matrix(0.05,0,0,0.05,20.95,0)" xlink:href="#aj"/><use transform="matrix(0.05,0,0,0.05,30.950000000000003,0)" xlink:href="#as"/></g><path d="M232-93c-1 65-40 97-104 97C67 4 28-28 28-90v-158h33c8 89-33 224 67 224 102 0 64-133 71-224h33v155" id="aG"/><g id="u"><use transform="matrix(0.05,0,0,0.05,0,0)" xlink:href="#aG"/><use transform="matrix(0.05,0,0,0.05,12.950000000000001,0)" xlink:href="#ay"/><use transform="matrix(0.05,0,0,0.05,17.950000000000003,0)" xlink:href="#al"/><use transform="matrix(0.05,0,0,0.05,21.900000000000002,0)" xlink:href="#au"/><use transform="matrix(0.05,0,0,0.05,25.85,0)" xlink:href="#al"/><use transform="matrix(0.05,0,0,0.05,29.8,0)" xlink:href="#ay"/><use transform="matrix(0.05,0,0,0.05,34.8,0)" xlink:href="#an"/></g><g id="v"><use transform="matrix(0.05,0,0,0.05,0,0)" xlink:href="#ao"/><use transform="matrix(0.05,0,0,0.05,10.3,0)" xlink:href="#ak"/><use transform="matrix(0.05,0,0,0.05,16.25,0)" xlink:href="#ap"/><use transform="matrix(0.05,0,0,0.05,26.25,0)" xlink:href="#aB"/><use transform="matrix(0.05,0,0,0.05,36.25,0)" xlink:href="#as"/><use transform="matrix(0.05,0,0,0.05,45.25,0)" xlink:href="#at"/><use transform="matrix(0.05,0,0,0.05,55.25,0)" xlink:href="#ax"/><use transform="matrix(0.05,0,0,0.05,65.25,0)" xlink:href="#ak"/><use transform="matrix(0.05,0,0,0.05,71.2,0)" xlink:href="#ay"/></g><path fill="#666" d="M30-147c31-64 166-65 159 27C183-49 158 1 86 4 9 8 1-88 30-147zM88-20c53 0 68-48 68-100 0-31-11-51-44-50-52 1-68 46-68 97 0 32 13 53 44 53" id="aH"/><g id="w"><use transform="matrix(0.04320987654320988,0,0,0.04320987654320988,0,0)" xlink:href="#Q"/><use transform="matrix(0.04320987654320988,0,0,0.04320987654320988,10.370370370370372,0)" xlink:href="#aH"/><use transform="matrix(0.04320987654320988,0,0,0.04320987654320988,19.01234567901235,0)" xlink:href="#D"/><use transform="matrix(0.04320987654320988,0,0,0.04320987654320988,27.654320987654323,0)" xlink:href="#C"/><use transform="matrix(0.04320987654320988,0,0,0.04320987654320988,32.7962962962963,0)" xlink:href="#E"/></g><path d="M205 0l-28-72H64L36 0H1l101-248h38L239 0h-34zm-38-99l-47-123c-12 45-31 82-46 123h93" id="aI"/><g id="x"><use transform="matrix(0.05,0,0,0.05,0,0)" xlink:href="#aI"/><use transform="matrix(0.05,0,0,0.05,12,0)" xlink:href="#aD"/><use transform="matrix(0.05,0,0,0.05,22,0)" xlink:href="#aC"/><use transform="matrix(0.05,0,0,0.05,31,0)" xlink:href="#ay"/><use transform="matrix(0.05,0,0,0.05,36,0)" xlink:href="#al"/><use transform="matrix(0.05,0,0,0.05,39.95,0)" xlink:href="#ax"/><use transform="matrix(0.05,0,0,0.05,49.95,0)" xlink:href="#aB"/></g><g id="y"><use transform="matrix(0.05,0,0,0.05,0,0)" xlink:href="#aw"/><use transform="matrix(0.05,0,0,0.05,12,0)" xlink:href="#ak"/><use transform="matrix(0.05,0,0,0.05,17.95,0)" xlink:href="#ax"/><use transform="matrix(0.05,0,0,0.05,27.950000000000003,0)" xlink:href="#at"/><use transform="matrix(0.05,0,0,0.05,37.95,0)" xlink:href="#aj"/><use transform="matrix(0.05,0,0,0.05,47.95,0)" xlink:href="#ak"/><use transform="matrix(0.05,0,0,0.05,53.900000000000006,0)" xlink:href="#ay"/><use transform="matrix(0.05,0,0,0.05,58.900000000000006,0)" xlink:href="#an"/></g><g id="z"><use transform="matrix(0.05,0,0,0.05,0,0)" xlink:href="#ai"/><use transform="matrix(0.05,0,0,0.05,11,0)" xlink:href="#aj"/><use transform="matrix(0.05,0,0,0.05,21,0)" xlink:href="#ak"/><use transform="matrix(0.05,0,0,0.05,26.950000000000003,0)" xlink:href="#al"/><use transform="matrix(0.05,0,0,0.05,30.899999999999995,0)" xlink:href="#am"/><use transform="matrix(0.05,0,0,0.05,35.9,0)" xlink:href="#an"/></g><g id="A"><use transform="matrix(0.05,0,0,0.05,0,0)" xlink:href="#aI"/><use transform="matrix(0.05,0,0,0.05,12,0)" xlink:href="#aD"/><use transform="matrix(0.05,0,0,0.05,22,0)" xlink:href="#aC"/><use transform="matrix(0.05,0,0,0.05,31,0)" xlink:href="#ay"/><use transform="matrix(0.05,0,0,0.05,36,0)" xlink:href="#al"/><use transform="matrix(0.05,0,0,0.05,39.95,0)" xlink:href="#ax"/><use transform="matrix(0.05,0,0,0.05,49.95,0)" xlink:href="#aB"/></g></defs></g></svg>